<svg xmlns="http://www.w3.org/2000/svg" width="314.109" height="97.345" viewBox="0 0 314.109 97.345">
  <g id="Group_1766" data-name="Group 1766" transform="translate(-526 -6450)">
    <g id="Group_1121" data-name="Group 1121" transform="translate(2162 -800)">
      <path id="Path_739" data-name="Path 739" d="M86.712,74.8l-.2-.338V65.335a.393.393,0,0,1,.433-.378h3.514c1.935,0,3.511,2.288,3.511,5.146a5.757,5.757,0,0,1-1.836,4.48,4.16,4.16,0,0,1-2.5.66,7.683,7.683,0,0,1-2.923-.443m-3.7-10.85.348.191a2.21,2.21,0,0,1,.853,1.868c.059.894.059,10.951.059,10.951,0,2.671,0,5.161-.145,6.335-.1.793-.238,1.574-.79,1.687,1.277-.018,2.826-.018,4,0a2.938,2.938,0,0,1-.711-2.219l-.112-6.48.2-.226,3.432.057a.433.433,0,0,1,.359.169c.568.73,2.48,2.588,3.664,4.126,1.3,1.73,2.006,2.365,3.077,3.607.332.357.677.829.283.966h4.584v-.128a8.164,8.164,0,0,1-3.591-2.29c-1.59-1.712-3.756-4.159-6.016-7.024a6.192,6.192,0,0,0,3.783-5.568,6.384,6.384,0,0,0-2.594-4.961,5.942,5.942,0,0,0-3.78-1.061c-.392.009-4.361.035-6.9,0m28.567,19.288a6.33,6.33,0,0,1-.306-2.127c-.038-.532-.062-9.523-.062-9.523,0-2.148,0-5,.024-5.953a.512.512,0,0,1,.344-.556,7.726,7.726,0,0,1,1.818-.194c3.321,0,6.507.393,9.13,3.155a10,10,0,0,1,2.679,7.039c0,2.582-.776,5.247-2.228,6.673a9.379,9.379,0,0,1-6.647,2.594c-3.3,0-4.385-.592-4.751-1.108m2.24-19.308c-1.682,0-3.434.078-3.77.078-.11,0-1.064-.036-2.059-.059a3.6,3.6,0,0,1,.828,2.059c.059.894.059,1.663.059,6.034,0,0,0,9.254-.1,10.5a4.88,4.88,0,0,1-.7,2.474c.532-.03,1.914-.051,1.973-.051.142,0,1.078.08,2.314.163,1.2.084,2.679.17,3.884.17,4.744,0,7.264-1.948,8.462-3.2a11.428,11.428,0,0,0,3.015-7.882,9.968,9.968,0,0,0-2.712-7.1c-2.888-2.994-7.154-3.187-10.025-3.187-.422,0-.815,0-1.168,0m-67.9.057L37.715,81.529l-8.542-17.57c-.14-.3-.256-.421-.428-.421s-.271.2-.3.5L26.431,82.261c-.047.436-.265,1.682-.311,1.892-.077.369-.265.775-.627.808l-.017.021h3.107a1.1,1.1,0,0,1-.529-.966c0-.778.077-1.721.077-1.783l1.12-12.966h.113c.3.758,3.428,7.463,3.69,7.966.13.277,2.538,5.11,3.253,6.467.537,1.008.677,1.283.88,1.283.25,0,.33-.244.915-1.477l6.839-14.523h.086l1.421,14.468s.065,1.334-.672,1.533h4.118c-.861-.232-1-1.332-1-1.332s-.21-1.569-.344-2.692l-1.88-16.665c-.054-.529-.143-.754-.341-.754s-.3.2-.41.449M62.692,75.612l2.468-7.55q.2-.629.415,0l2.654,7.55-.116.2H62.784Zm2.516-10.981L58.874,81.978c-.038.127-.936,3-1.9,3h3.544a1,1,0,0,1-.354-1.016,10.382,10.382,0,0,1,.359-1.988L62.2,77.034l.277-.225h6l.247.173L71.157,83.4c.439,1.239-.086,1.542-.13,1.578h4.183c-.713-.43-1.871-2.6-2.253-3.589-1.717-4.237-6.094-15.785-6.513-16.848-.342-.867-.448-1.007-.615-1.007s-.276.17-.621,1.093m74.958,10.981,2.445-7.55q.219-.629.431,0l2.656,7.55-.121.2h-5.324Zm2.507-10.981-6.34,17.347c-.042.127-.933,3-1.9,3h3.542a.988.988,0,0,1-.351-1.016,11.092,11.092,0,0,1,.356-1.988l1.681-4.944.276-.225h6l.252.173,2.439,6.421c.422,1.239-.092,1.542-.14,1.578h4.169c-.7-.43-1.857-2.6-2.252-3.589-1.7-4.237-6.088-15.785-6.507-16.848-.333-.867-.44-1.007-.615-1.007s-.277.17-.614,1.093m18.756.314-.03,16c0,2.538-.136,3.845-.831,4.04.9-.018,2.55-.021,3.446,0-.636-.28-.886-1.61-.935-3.731l-.36-13.388c.894,1.014,4.049,4.54,7.281,8.028,2.968,3.176,6.979,7.291,7.293,7.562,1.488,1.482,1.824,1.78,2.047,1.78.2,0,.247-.128.247-1.967l.059-16.364c0-1.519.1-2.7.778-2.953-.79.023-2.478.023-3.23,0,.618.288.775,1.581.8,3.164l.318,14.195c-.906-.926-3.948-4.326-6.714-7.293-4.294-4.6-8.458-9.1-8.875-9.581-.28-.276-.755-.9-.98-.9s-.311.312-.311,1.406m170.99-.989c-1.379,0-3.551-.006-3.551-.006.645.285.862,1.174.9,2,.059.891.059,10.937.059,10.937,0,2.679,0,4.8-.136,5.98-.11.767-.4,1.919-.921,2.11h9.376c.841,0,1.078-.065,1.256-.724.059-.22.119-.647.184-1.076.026-.151-.184-.24-.318-.148a6.576,6.576,0,0,1-3.847.828c-2.751,0-3.159-.354-3.23-2.273-.03-.591,0-7.149,0-7.149l.184-.205c.4,0,2.484.045,3.551.112a3.434,3.434,0,0,1,2.033.639c.187.182.393.075.414-.042.015-.276.026-.532.045-.731.05-.421.095-.8.137-1.094s-.157-.416-.273-.35a3.071,3.071,0,0,1-1.492.407c-.644.051-4.091.051-4.444.051-.14,0-.157-.078-.157-.28v-7.7c0-.2.048-.279.157-.279.205,0,1.758.009,2.843.045a11.47,11.47,0,0,1,3.444.461c.086.029.234-.059.237-.255a5.959,5.959,0,0,1,.217-1.274s-5.289.006-6.669.006m-79.929-.006c.484.247.638,1.311.693,2.036.008.267.045,10.928.045,10.928,0,2.673,0,4.89-.137,6.072-.1.66-.222,1.78-.6,2H265.3V82.67a10.244,10.244,0,0,1-4.26.98c-2.186,0-4.317.113-4.848-.63-.779-1.082-.615-3.075-.615-7.18,0,0,0-8.949.069-9.854.032-.763.193-1.81.65-2.042-.868.021-2.864.029-3.809.006m-45.753.009c-.164,0-1.162-.045-2.184-.068.684.228.9,1.212.95,2.064.056.891.056,10.946.056,10.946,0,2.676-.048,5.439-.145,6.607-.1,1.313-.825,1.468-.861,1.474.665-.006,2.89,0,4.45,0a2.27,2.27,0,0,1-1.019-1.812c-.143-1.179-.143-3.594-.143-6.269V65.42c0-.285.047-.473.229-.535a3.436,3.436,0,0,1,1.2-.167,4.816,4.816,0,0,1,3.814,1.4,5.881,5.881,0,0,1,1.568,4.291,4.646,4.646,0,0,1-4.828,4.564c-.583,0-.755.02-.755.247,0,.142.116.225.9.225a6.486,6.486,0,0,0,6.863-6.653,4.866,4.866,0,0,0-1.393-3.325c-.454-.419-1.712-1.59-5.194-1.59-1.283,0-2.9.08-3.509.08M229.88,75.612l2.468-7.55c.136-.419.273-.419.407,0l2.665,7.55-.124.2h-5.333ZM232.4,64.631l-6.35,17.347c-.042.127-.93,3-1.9,3h3.557a.975.975,0,0,1-.354-1.016,9.369,9.369,0,0,1,.354-1.988l1.66-4.944.292-.225h6.008l.253.173L238.35,83.4c.427,1.239-.09,1.542-.136,1.578h4.174c-.713-.43-1.86-2.6-2.244-3.589-1.709-4.237-6.091-15.785-6.515-16.848-.336-.867-.451-1.007-.618-1.007s-.273.17-.609,1.093m47.619,10.981,2.463-7.55c.137-.419.286-.419.416,0l2.654,7.55-.116.2h-5.327Zm2.525-10.981L276.2,81.978c-.05.127-.944,3-1.9,3h3.544a.977.977,0,0,1-.35-1.016,11.086,11.086,0,0,1,.35-1.988l1.667-4.944.28-.225h6l.255.173,2.443,6.421c.428,1.239-.09,1.542-.128,1.578h4.171c-.71-.43-1.86-2.6-2.261-3.589-1.706-4.237-6.09-15.785-6.519-16.848-.323-.867-.433-1.007-.594-1.007s-.28.17-.616,1.093m19.867,1.712a11.127,11.127,0,0,0-3.135,7.62,10.743,10.743,0,0,0,3.381,8.274c2.216,1.964,5.027,3.009,9.216,3.009a16.162,16.162,0,0,0,5.026-.639c.508-.234.558-.3.728-.823.087-.276.16-.656.249-1.091.032-.2-.161-.353-.315-.249a10.2,10.2,0,0,1-5.687,1.512,10.086,10.086,0,0,1-10.081-10.221c0-2.837.481-5.338,2.52-7.282.983-.95,2.706-2.041,6.423-2.041,4.136,0,6.305,1.856,6.883,2.85.146.244.381.136.383-.182.017-.392.026-.781.048-1.114.047-.993.137-1.334.137-1.554,0-.169-.045-.282-.363-.309a23.527,23.527,0,0,1-2.847-.424,24.291,24.291,0,0,0-4.05-.338c-4.305,0-6.839,1.317-8.514,3" transform="translate(-1661.477 7262.051)" fill="#af8128"/>
      <path id="Path_740" data-name="Path 740" d="M132.966,32.9c-.582-.1-.579-.555-.579-.992a8.3,8.3,0,0,0-2.679-6.011,6.238,6.238,0,0,1-1.854-3.422c-.1-.609-.345-.8-.9-.724a.869.869,0,0,1-.109,0,7.726,7.726,0,0,0-2.448.068c-.787.283-.481,1.367-.843,2.038a7.563,7.563,0,0,1-1.278,1.834,8.809,8.809,0,0,0-2.887,6.259c-.006.395.038.812-.5.93-.107.024-.231,0-.181.241.543,2.611.093,5.255.247,7.879.039.675-.2.947-.918.962-.87.017-2.035-.439-2.532.238-.415.562-.163,1.657-.113,2.511.048.808-.155,1.143-1.055,1.123-2.755-.057-5.512-.041-8.268-.008-.746.009-1.064-.235-.984-.986a9.388,9.388,0,0,0,0-.966c0-1.871,0-1.871,1.626-2.321-.8-.332-1.85.276-2.37-.338-.452-.531-.356-1.492-.626-2.217-1.043-2.8-4.016-4.377-7.335-3.952a6.159,6.159,0,0,0-5.3,5.4c-.074.722-.347,1.034-1.07.993-.528-.03-1.06-.006-1.632-.006.05.142.062.228.086.232C90,41.9,90,41.9,90,43.46c0,2.357,0,2.356-2.4,2.356-5.369,0-10.738-.006-16.106.009-.657,0-1.067-.054-1.07-.9,0-.862.436-.886,1.078-.885q7.73.02,15.461,0a1.74,1.74,0,0,0,1.153-.181c-1.72-.6-1.72-.6-1.72-2.614,0-.214.017-.431,0-.644-.075-.767.216-1.194,1.03-1.058,1.295.219,1.937-.2,2.443-1.544a8.474,8.474,0,0,1,15.518.327,1.5,1.5,0,0,0,1.789,1.236c1.509-.09,1.513-.024,1.513,1.5v.214a9.1,9.1,0,0,1-.047,1.926c-.2.852-1.174.1-1.694.69a3.452,3.452,0,0,0,1.58.143c1.36.018,2.722-.036,4.079.023.776.033,1.008-.255.953-.986-.05-.675.017-1.36-.018-2.038-.033-.629.175-.963.847-.891a.845.845,0,0,0,.107,0c.814-.05,1.883.348,2.383-.16.588-.6.142-1.7.2-2.576.035-.534,0-1.073.008-1.61.011-.516-.124-.714-.677-1.034-.993-.574-.241-1.8-.413-2.737-.065-.351-.127-1.007.381-.945,1.381.167,1.3-.829,1.5-1.643a9.738,9.738,0,0,1,2.784-4.75,4.694,4.694,0,0,0,1.548-3.728c-.023-.835.213-1.146,1.082-1.131,1.711.03,1.712-.014,1.712-1.759,0-1.325.024-2.65-.011-3.973-.015-.644.28-.787.849-.779s.981.032.966.776c-.032,1.575.027,3.15-.024,4.724-.024.764.146,1.18.993,1.033.1-.018.217.011.321,0,1.075-.158,1.519.188,1.48,1.382a4.348,4.348,0,0,0,1.485,3.422,9.451,9.451,0,0,1,2.96,5.467c.1.6.276,1,1.008.906.623-.083.793.314.775.868-.02.607,0,1.216,0,1.825,0,.564.134,1.206-.8,1.155-.353-.02-.341.3-.341.546,0,1.361.018,2.721-.011,4.08-.012.549.238.666.713.65.644-.023,1.29.026,1.932-.014s.915.181.877.853c-.044.784.006,1.574-.014,2.361-.014.494.164.707.683.7,1.468-.023,2.935-.018,4.4,0,.475.006.627-.2.612-.645a17.625,17.625,0,0,0-.021-2.036c-.244-1.649.739-3.147.506-4.795-.072-.509.431-.516.778-.463.757.113.98-.288,1.1-.939q1.429-8.076,2.893-16.147c.112-.621.116-1.277,1.1-1.21.674.047.907.253,1.025.909.965,5.384,1.976,10.761,2.953,16.142.134.739.191,1.426,1.25,1.25.607-.1.606.387.678.843a29.316,29.316,0,0,1,.466,6.5c-.039.609.356.585.769.585,2.183,0,4.367.008,6.549-.014.3,0,.772.229.815-.378.033-.461-.181-.689-.62-.855a3.268,3.268,0,0,1-2.433-3.367,3.161,3.161,0,0,1,2.764-3.193,4.685,4.685,0,0,0,2.78-1.426,14.8,14.8,0,0,0,5.078-8.605c.116-.653.506-.6,1-.653.7-.074.939.219,1.061.847a15.326,15.326,0,0,0,5.683,8.958,3.2,3.2,0,0,0,1.911.831,3.292,3.292,0,0,1,3.009,3,3.347,3.347,0,0,1-2.317,3.568c-.437.143-.822.223-.764.814.071.728.62.4.981.469a5.308,5.308,0,0,0,6.186-2.882c.3-.555,1.073-.975,1.132-1.512.066-.615-.85-.822-1.31-1.236a5.623,5.623,0,0,1-.057-8.746,42.883,42.883,0,0,0,6.858-7.645,1.6,1.6,0,0,1,2.537,0,43.945,43.945,0,0,0,6.913,7.74c3.012,2.665,2.645,6.512-.746,9.079-.812.617-.751.948-.157,1.607,1.028,1.143,1.762,2.822,3.022,3.405,1.3.6,3.086.176,4.658.187,1.236.009,1.486-.312,1.23-1.518-.036-.176-.036-.384-.262-.4-.537-.047-1.01-.128-.944-.852.078-.843-.235-1.714.769-2.359,2.92-1.874,5.781-3.839,8.637-5.809a1.21,1.21,0,0,1,1.616-.006c2.884,1.994,5.769,3.985,8.72,5.876,1.02.654.692,1.524.752,2.364.056.761-.583.592-1.007.791-.6.283-.238.941-.282,1.429-.059.659.487.484.837.484q7.355.016,14.71.008c.43,0,.861.027,1.287-.006.674-.054,1.048.074,1.046.9,0,.864-.44.88-1.079.879-5.87-.012-11.739-.021-17.609.009-.831,0-1.161-.214-1.111-1.085.066-1.177.017-2.362.017-3.542,0-.143-.057-.333.012-.424.85-1.1-.229-1.317-.8-1.709-1.884-1.3-3.8-2.55-5.684-3.854a.9.9,0,0,0-1.216-.006c-2.145,1.488-4.32,2.932-6.483,4.394-.311.211-.865.36-.154.82.152.1.118.531.121.809.011,1.253-.014,2.507.012,3.758.012.589-.191.837-.8.831q-3.706-.029-7.409,0a1.178,1.178,0,0,1-.995-.506c-1.538-1.886-3.064-3.779-4.638-5.634-.592-.7-.384-1,.368-1.3a6.6,6.6,0,0,0,2.691-1.9c1.394-1.676,1.489-3.634-.137-5.1a45.213,45.213,0,0,1-6.858-7.505c-.3-.419-.479-.259-.7.059a41.767,41.767,0,0,1-6.711,7.348c-1.774,1.586-1.684,3.672-.042,5.4a7.172,7.172,0,0,0,2.559,1.73c.855.339.787.7.264,1.317-1.548,1.83-3.06,3.69-4.567,5.555a1.24,1.24,0,0,1-1.075.543q-3.059-.038-6.12,0c-.656.008-.892-.235-.87-.883.036-1,.036-2,0-3.006-.024-.659.247-.915.888-.867a3.881,3.881,0,0,0,.963-.018,1.44,1.44,0,0,0,1.3-1.364,1.363,1.363,0,0,0-1.14-1.592c-3.129-.421-4.8-2.748-6.587-4.918a17.3,17.3,0,0,1-2.1-3.613,28.912,28.912,0,0,1-2.032,3.53,18.391,18.391,0,0,1-4.426,4.334,3.671,3.671,0,0,1-1.812.6c-1.055.118-1.639.755-1.574,1.658a1.573,1.573,0,0,0,1.72,1.393c1.47.045,1.47.045,1.471,1.479,0,.788-.021,1.577.006,2.362.021.62-.178.913-.856.909q-5.153-.032-10.307,0c-.618,0-.818-.264-.811-.838.017-1.182.012-2.362,0-3.544,0-.3.116-.71-.369-.748s-.987-.023-.935-.711c.056-.714-.365-1.614.811-2-1.073.059-1.408-.4-1.572-1.39-.708-4.257-1.542-8.492-2.481-12.766-.282,1.468-.571,2.933-.841,4.4-.528,2.878-1.064,5.755-1.554,8.64-.142.835-.513,1.219-1.468,1.017,1.1.638.6,1.586.665,2.389a.314.314,0,0,1-.317.36c-1.216-.107-.929.767-.938,1.429-.015.966-.02,1.934,0,2.9.014.565-.146.859-.784.855q-3.866-.034-7.731,0c-.6,0-.841-.219-.811-.819.03-.644-.068-1.3.023-1.931.146-1.014-.3-1.173-1.2-1.153-2.373.054-2.409.015-2.362-2.367a46.738,46.738,0,0,1,.139-6.415c.285-.271.665-.021.938-.167A1.482,1.482,0,0,1,132.966,32.9Z" transform="translate(-1638.668 7236.675)" fill="#af8128"/>
      <g id="Group_1042" data-name="Group 1042" transform="translate(-1567.759 7250.456)">
        <g id="Group_1010" data-name="Group 1010" transform="translate(63.004 20.862)">
          <path id="Path_741" data-name="Path 741" d="M113.118,33.154a1.1,1.1,0,0,1-.27-.834c.02-.922.017-1.845.012-2.768V28.222a1,1,0,0,1,.244-.755c-.315.086-.544.332-.546.932l0,1.329c0,.923.008,1.845-.012,2.768a.976.976,0,0,0,1.091,1.117l.49-.008.918.008c.211,0,.421,0,.63-.017h.042c.243,0,.3.029.314.041s.054.06.039.332c-.026.46-.02.919-.015,1.381,0,.332.009.663,0,1a1.148,1.148,0,0,0,.276.87,1.106,1.106,0,0,0,.835.294c.737-.009,1.441-.015,2.145-.015q1.14,0,2.281.015a1.08,1.08,0,0,0,.748-.241,1.408,1.408,0,0,1-.448.066q-1.14-.016-2.281-.017c-.7,0-1.406.006-2.143.017a1.106,1.106,0,0,1-.835-.294,1.14,1.14,0,0,1-.276-.871c.009-.332,0-.665,0-.995-.006-.461-.011-.921.014-1.381.017-.271-.038-.333-.039-.333s-.069-.039-.312-.039h-.044c-.21.012-.419.015-.629.015l-.918-.008-.49.008A1.109,1.109,0,0,1,113.118,33.154Z" transform="translate(-112.547 -27.467)" fill="#cbad63"/>
          <path id="Path_742" data-name="Path 742" d="M113.1,27.467c-.315.086-.544.332-.546.932l0,1.329c0,.923.008,1.845-.012,2.768a.976.976,0,0,0,1.091,1.117l.49-.008.918.008c.211,0,.421,0,.63-.017h.042c.243,0,.3.029.314.041s.054.06.039.332c-.026.46-.02.919-.015,1.381,0,.332.009.663,0,1a1.148,1.148,0,0,0,.276.87,1.106,1.106,0,0,0,.835.294c.737-.009,1.441-.015,2.145-.015q1.14,0,2.281.015a1.08,1.08,0,0,0,.748-.241,1.408,1.408,0,0,1-.448.066q-1.14-.016-2.281-.017c-.7,0-1.406.006-2.143.017a1.106,1.106,0,0,1-.835-.294,1.14,1.14,0,0,1-.276-.871c.009-.332,0-.665,0-.995-.006-.461-.011-.921.014-1.381.017-.271-.038-.333-.039-.333s-.069-.039-.312-.039h-.044c-.21.012-.419.015-.629.015l-.918-.008-.49.008a.975.975,0,0,1-1.091-1.115c.02-.922.017-1.845.012-2.768V28.222a1,1,0,0,1,.244-.755Z" transform="translate(-112.547 -27.467)" fill="#ffeec1"/>
        </g>
        <g id="Group_1011" data-name="Group 1011" transform="translate(43.107 26.814)">
          <path id="Path_743" data-name="Path 743" d="M99.466,31.6l.214-.006a6.038,6.038,0,0,1,.666.05,6.928,6.928,0,0,0,.749.054,1.61,1.61,0,0,0,.941-.27,2.011,2.011,0,0,1-.641.095,6.915,6.915,0,0,1-.748-.056,6.46,6.46,0,0,0-.666-.05l-.216.006-.211-.012a.3.3,0,0,0-.172.033.706.706,0,0,0-.036.148Z" transform="translate(-99.347 -31.416)" fill="#cbad63"/>
          <path id="Path_744" data-name="Path 744" d="M99.555,31.416a.3.3,0,0,0-.172.033.706.706,0,0,0-.036.148l.119.008.214-.006a6.038,6.038,0,0,1,.666.05,6.928,6.928,0,0,0,.749.054,1.61,1.61,0,0,0,.941-.27,2.011,2.011,0,0,1-.641.095,6.915,6.915,0,0,1-.748-.056,6.46,6.46,0,0,0-.666-.05l-.216.006-.211-.012Z" transform="translate(-99.347 -31.416)" fill="#ffeec1"/>
        </g>
        <g id="Group_1012" data-name="Group 1012" transform="translate(73.904 22.689)">
          <path id="Path_745" data-name="Path 745" d="M120.042,28.973a1.123,1.123,0,0,0,.787-.294,1.21,1.21,0,0,1-.485.118,1.889,1.889,0,0,1-.306-.024,1.923,1.923,0,0,1-.259-.05c.012.078.008.154.014.231A2.191,2.191,0,0,0,120.042,28.973Z" transform="translate(-119.778 -28.679)" fill="#cbad63"/>
          <path id="Path_746" data-name="Path 746" d="M120.829,28.679a1.21,1.21,0,0,1-.485.118,1.889,1.889,0,0,1-.306-.024,1.923,1.923,0,0,1-.259-.05c.012.078.008.154.014.231a2.191,2.191,0,0,0,.25.02,1.123,1.123,0,0,0,.787-.294Z" transform="translate(-119.778 -28.679)" fill="#ffeec1"/>
        </g>
        <g id="Group_1013" data-name="Group 1013" transform="translate(78.818 4.487)">
          <path id="Path_747" data-name="Path 747" d="M123.106,16.78c.57.035.632.09.711.537q.846,4.726,1.724,9.442.617,3.351,1.23,6.7c.13.731.291,1.652,1.391,1.652a2.217,2.217,0,0,0,.378-.035c.09.012.116.2.133.317a29.7,29.7,0,0,1,.484,6.552,1.01,1.01,0,0,0,.232.785,1.158,1.158,0,0,0,.9.282H133.5c1.146,0,2.291,0,3.437-.012a4.267,4.267,0,0,0,.43.041.8.8,0,0,0,.588-.226.912.912,0,0,1-.286.05,3.86,3.86,0,0,1-.431-.041c-1.144.011-2.29.012-3.437.012h-3.209a1.161,1.161,0,0,1-.9-.282,1.008,1.008,0,0,1-.231-.784,29.881,29.881,0,0,0-.484-6.552c-.018-.121-.042-.3-.133-.317a2.4,2.4,0,0,1-.378.035c-1.1,0-1.263-.921-1.393-1.652q-.608-3.353-1.228-6.7-.871-4.719-1.724-9.442c-.081-.448-.143-.5-.711-.538-.206,0-.3.038-.369.182C123.062,16.785,123.077,16.78,123.106,16.78Z" transform="translate(-123.038 -16.604)" fill="#cbad63"/>
          <path id="Path_748" data-name="Path 748" d="M123.407,16.6c-.206,0-.3.038-.369.182.024,0,.039-.006.068-.006.57.035.632.09.711.537q.846,4.726,1.724,9.442.617,3.351,1.23,6.7c.13.731.291,1.652,1.391,1.652a2.217,2.217,0,0,0,.378-.035c.09.012.116.2.133.317a29.7,29.7,0,0,1,.484,6.552,1.01,1.01,0,0,0,.232.785,1.158,1.158,0,0,0,.9.282H133.5c1.146,0,2.291,0,3.437-.014a3.977,3.977,0,0,0,.43.042.8.8,0,0,0,.588-.226.912.912,0,0,1-.286.05,3.86,3.86,0,0,1-.431-.041c-1.144.011-2.29.012-3.437.012h-3.209a1.161,1.161,0,0,1-.9-.282,1.008,1.008,0,0,1-.231-.784,29.881,29.881,0,0,0-.484-6.552c-.018-.121-.042-.3-.133-.317a2.4,2.4,0,0,1-.378.035c-1.1,0-1.263-.921-1.393-1.652q-.608-3.353-1.228-6.7-.871-4.719-1.724-9.442c-.081-.448-.143-.5-.711-.538Z" transform="translate(-123.038 -16.604)" fill="#ffeec1"/>
        </g>
        <g id="Group_1014" data-name="Group 1014" transform="translate(51.814 6.378)">
          <path id="Path_749" data-name="Path 749" d="M105.348,18.167l.52.006a1.974,1.974,0,0,0,1.31-.315,2.845,2.845,0,0,1-1.008.14l-.52-.006c-.35,0-.454.066-.481.1a.272.272,0,0,0-.045.09A1.81,1.81,0,0,1,105.348,18.167Z" transform="translate(-105.123 -17.858)" fill="#cbad63"/>
          <path id="Path_750" data-name="Path 750" d="M107.178,17.858a2.845,2.845,0,0,1-1.008.14l-.52-.006c-.35,0-.454.066-.481.1a.272.272,0,0,0-.045.09,1.81,1.81,0,0,1,.225-.012l.52.006a1.974,1.974,0,0,0,1.31-.315Z" transform="translate(-105.123 -17.858)" fill="#ffeec1"/>
        </g>
        <g id="Group_1015" data-name="Group 1015" transform="translate(54.563 0)">
          <path id="Path_751" data-name="Path 751" d="M106.986,13.8a1.525,1.525,0,0,1,.519.056s.041.053.036.256c-.015.714-.011,1.427-.006,2.142,0,.859.009,1.718-.018,2.578a1.624,1.624,0,0,0,.327,1.224,1.082,1.082,0,0,0,.814.308,2.173,2.173,0,0,0,.384-.036l.172.008a4.963,4.963,0,0,1,.511-.042c.315,0,.4.089.428.116.081.086.175.3.157.832a4.8,4.8,0,0,0,1.629,3.771,8.969,8.969,0,0,1,2.822,5.206,1.292,1.292,0,0,0,1.253,1.3,2.137,2.137,0,0,0,.265-.02l.2.011s.072.078.062.393c-.014.407-.011.815-.008,1.222l.006.823a2.7,2.7,0,0,1-.011.326c.018,0,.035-.006.053-.006h.017a.415.415,0,0,0,.21-.033,1.385,1.385,0,0,0,.033-.463l-.006-.822c0-.408-.006-.815.006-1.224.011-.314-.057-.389-.06-.392l-.2-.011a2.1,2.1,0,0,1-.264.018,1.291,1.291,0,0,1-1.254-1.3,8.98,8.98,0,0,0-2.82-5.206,4.794,4.794,0,0,1-1.629-3.77c.018-.534-.077-.748-.158-.832-.027-.029-.112-.116-.427-.116a4.793,4.793,0,0,0-.511.041l-.172-.006a2.173,2.173,0,0,1-.384.036,1.087,1.087,0,0,1-.814-.307,1.636,1.636,0,0,1-.329-1.225c.029-.858.024-1.717.018-2.578,0-.713-.008-1.427.008-2.14a.476.476,0,0,0-.038-.258,1.556,1.556,0,0,0-.517-.054c-.264,0-.314.045-.315.045a.841.841,0,0,0-.026.133C106.965,13.8,106.967,13.8,106.986,13.8Z" transform="translate(-106.947 -13.627)" fill="#cbad63"/>
          <path id="Path_752" data-name="Path 752" d="M107.288,13.627c-.264,0-.314.045-.315.045a.841.841,0,0,0-.026.133c.018,0,.02,0,.039,0a1.525,1.525,0,0,1,.519.056s.041.053.036.256c-.015.714-.011,1.427-.006,2.142,0,.859.009,1.718-.018,2.578a1.624,1.624,0,0,0,.327,1.224,1.082,1.082,0,0,0,.814.308,2.173,2.173,0,0,0,.384-.036l.172.008a4.963,4.963,0,0,1,.511-.042c.315,0,.4.089.428.116.081.086.175.3.157.832a4.8,4.8,0,0,0,1.629,3.771,8.969,8.969,0,0,1,2.822,5.206,1.292,1.292,0,0,0,1.253,1.3,2.137,2.137,0,0,0,.265-.02l.2.011s.072.078.062.393c-.014.407-.011.815-.008,1.222l.006.823a2.7,2.7,0,0,1-.011.326c.018,0,.035-.006.053-.006h.017a.415.415,0,0,0,.21-.033,1.385,1.385,0,0,0,.033-.463l-.006-.822c0-.408-.006-.815.006-1.224.011-.314-.057-.389-.06-.392l-.2-.011a2.1,2.1,0,0,1-.264.018,1.291,1.291,0,0,1-1.254-1.3,8.98,8.98,0,0,0-2.82-5.206,4.794,4.794,0,0,1-1.629-3.77c.018-.534-.077-.748-.158-.832-.027-.029-.112-.116-.427-.116a4.793,4.793,0,0,0-.511.041l-.172-.006a2.173,2.173,0,0,1-.384.036,1.087,1.087,0,0,1-.814-.307,1.636,1.636,0,0,1-.329-1.225c.029-.858.024-1.717.018-2.578,0-.713-.008-1.427.008-2.14a.476.476,0,0,0-.038-.258,1.556,1.556,0,0,0-.517-.054Z" transform="translate(-106.947 -13.627)" fill="#ffeec1"/>
        </g>
        <g id="Group_1016" data-name="Group 1016" transform="translate(109.561 27.539)">
          <path id="Path_753" data-name="Path 753" d="M143.707,32.1a.393.393,0,0,0-.235.047.494.494,0,0,0-.039.13c.255.017.422.026.585.026a3.288,3.288,0,0,0,.573-.045,2.182,2.182,0,0,0,.853-.357,2.36,2.36,0,0,1-.553.182,3.429,3.429,0,0,1-.573.045C144.149,32.125,143.98,32.114,143.707,32.1Z" transform="translate(-143.433 -31.897)" fill="#cbad63"/>
          <path id="Path_754" data-name="Path 754" d="M145.444,31.9a2.36,2.36,0,0,1-.553.182,3.429,3.429,0,0,1-.573.045c-.169,0-.338-.011-.61-.027a.393.393,0,0,0-.235.047.494.494,0,0,0-.039.13c.255.017.422.026.585.026a3.288,3.288,0,0,0,.573-.045,2.182,2.182,0,0,0,.853-.357Z" transform="translate(-143.433 -31.897)" fill="#ffeec1"/>
        </g>
        <g id="Group_1017" data-name="Group 1017" transform="translate(130.398 24.309)">
          <path id="Path_755" data-name="Path 755" d="M159.015,29.754a7.724,7.724,0,0,1-1.334.719,2.117,2.117,0,0,0-.422.211v0l.008.02c.044-.02.059-.032.116-.054A7.6,7.6,0,0,0,159.015,29.754Z" transform="translate(-157.257 -29.754)" fill="#cbad63"/>
          <path id="Path_756" data-name="Path 756" d="M159.015,29.754a7.724,7.724,0,0,1-1.334.719,2.117,2.117,0,0,0-.422.211v0l.008.02c.044-.02.059-.032.116-.054a7.6,7.6,0,0,0,1.634-.894Z" transform="translate(-157.257 -29.754)" fill="#ffeec1"/>
        </g>
        <g id="Group_1018" data-name="Group 1018" transform="translate(125.347 8.073)">
          <path id="Path_757" data-name="Path 757" d="M154.3,19.158a1.073,1.073,0,0,1,.888.434,44.005,44.005,0,0,0,6.984,7.819,5.035,5.035,0,0,1,1.889,3.987,5.941,5.941,0,0,1-2.609,4.392,1.67,1.67,0,0,0-.781,1.082,1.633,1.633,0,0,0,.561,1.191,12.968,12.968,0,0,1,.948,1.248,6.244,6.244,0,0,0,2.222,2.264,4.709,4.709,0,0,0,2.02.366c.463,0,.942-.035,1.42-.069.455-.032.91-.066,1.349-.066h.008a2.234,2.234,0,0,0,1.417-.333,3.1,3.1,0,0,1-1.117.157h-.006c-.439,0-.894.035-1.349.068-.478.035-.957.069-1.42.069a4.685,4.685,0,0,1-2.02-.368,6.216,6.216,0,0,1-2.222-2.263,12.992,12.992,0,0,0-.948-1.25,1.63,1.63,0,0,1-.562-1.191,1.677,1.677,0,0,1,.782-1.082,5.943,5.943,0,0,0,2.609-4.392,5.032,5.032,0,0,0-1.889-3.985,43.965,43.965,0,0,1-6.985-7.82,1.07,1.07,0,0,0-.888-.433,1.116,1.116,0,0,0-.7.264A1.206,1.206,0,0,1,154.3,19.158Z" transform="translate(-153.906 -18.983)" fill="#cbad63"/>
          <path id="Path_758" data-name="Path 758" d="M154.6,18.983a1.116,1.116,0,0,0-.7.264,1.206,1.206,0,0,1,.4-.089,1.073,1.073,0,0,1,.888.434,44.005,44.005,0,0,0,6.984,7.819,5.035,5.035,0,0,1,1.889,3.987,5.941,5.941,0,0,1-2.609,4.392,1.67,1.67,0,0,0-.781,1.082,1.633,1.633,0,0,0,.561,1.191,12.968,12.968,0,0,1,.948,1.248,6.244,6.244,0,0,0,2.222,2.264,4.709,4.709,0,0,0,2.02.366c.463,0,.942-.035,1.42-.069.455-.032.91-.066,1.349-.066h.008a2.234,2.234,0,0,0,1.417-.333,3.1,3.1,0,0,1-1.117.157h-.006c-.439,0-.894.035-1.349.068-.478.035-.957.069-1.42.069a4.685,4.685,0,0,1-2.02-.368,6.216,6.216,0,0,1-2.222-2.263,12.992,12.992,0,0,0-.948-1.25,1.63,1.63,0,0,1-.562-1.191,1.677,1.677,0,0,1,.782-1.082,5.943,5.943,0,0,0,2.609-4.392,5.032,5.032,0,0,0-1.889-3.985,43.965,43.965,0,0,1-6.985-7.82,1.07,1.07,0,0,0-.888-.433Z" transform="translate(-153.906 -18.983)" fill="#ffeec1"/>
        </g>
        <g id="Group_1019" data-name="Group 1019" transform="translate(150.645 19.467)">
          <path id="Path_759" data-name="Path 759" d="M170.981,26.717a.964.964,0,0,1,.544.226c2.682,1.853,5.722,3.954,8.732,5.882.549.353.564.724.543,1.4a5.561,5.561,0,0,0,0,.613c0,.024-.024.03-.035.048.026,0,.054-.018.077-.023a.271.271,0,0,0,.259-.2,5.943,5.943,0,0,1,0-.613c.021-.677.008-1.048-.541-1.4-3.012-1.928-6.052-4.031-8.734-5.883a.95.95,0,0,0-.543-.225,1.036,1.036,0,0,0-.556.232l-.038.024A.743.743,0,0,1,170.981,26.717Z" transform="translate(-170.689 -26.542)" fill="#cbad63"/>
          <path id="Path_760" data-name="Path 760" d="M171.283,26.542a1.036,1.036,0,0,0-.556.232l-.038.024a.743.743,0,0,1,.292-.081.964.964,0,0,1,.544.226c2.682,1.853,5.722,3.954,8.732,5.882.549.353.564.724.543,1.4a5.561,5.561,0,0,0,0,.613c0,.024-.024.03-.035.048.026,0,.054-.018.077-.023a.271.271,0,0,0,.259-.2,5.943,5.943,0,0,1,0-.613c.021-.677.008-1.048-.541-1.4-3.012-1.928-6.052-4.031-8.734-5.883a.95.95,0,0,0-.543-.225Z" transform="translate(-170.689 -26.542)" fill="#ffeec1"/>
        </g>
        <g id="Group_1020" data-name="Group 1020" transform="translate(92.451 22.423)">
          <path id="Path_761" data-name="Path 761" d="M132.91,29.171a4.2,4.2,0,0,0,1.9-.668,4.126,4.126,0,0,1-1.6.493,2.41,2.41,0,0,0-1.129.41A2.436,2.436,0,0,1,132.91,29.171Z" transform="translate(-132.082 -28.503)" fill="#cbad63"/>
          <path id="Path_762" data-name="Path 762" d="M134.813,28.5a4.126,4.126,0,0,1-1.6.493,2.41,2.41,0,0,0-1.129.41,2.436,2.436,0,0,1,.828-.235,4.2,4.2,0,0,0,1.9-.668Z" transform="translate(-132.082 -28.503)" fill="#ffeec1"/>
        </g>
        <g id="Group_1021" data-name="Group 1021" transform="translate(83.082 24.782)">
          <path id="Path_763" data-name="Path 763" d="M125.867,30.127c.024-.008.033-.018.059-.027l-.006-.032C125.9,30.085,125.887,30.109,125.867,30.127Z" transform="translate(-125.867 -30.068)" fill="#cbad63"/>
          <path id="Path_764" data-name="Path 764" d="M125.92,30.068c-.024.017-.033.041-.053.059.024-.008.033-.018.059-.027l-.006-.032Z" transform="translate(-125.867 -30.068)" fill="#ffeec1"/>
        </g>
        <g id="Group_1022" data-name="Group 1022" transform="translate(101.863 12.231)">
          <path id="Path_765" data-name="Path 765" d="M138.432,21.932s.255-.017.291-.017c.273,0,.366.051.449.482a15.733,15.733,0,0,0,5.838,9.222,3.686,3.686,0,0,0,2.174.935,2.847,2.847,0,0,1,2.585,2.593,2.889,2.889,0,0,1-1.081,2.584,2.892,2.892,0,0,0-1.2-5.351,3.672,3.672,0,0,1-2.172-.936,15.714,15.714,0,0,1-5.838-9.222c-.084-.431-.176-.481-.449-.481-.036,0-.291.015-.291.015-.327.027-.374.041-.407.187C138.362,21.938,138.386,21.935,138.432,21.932Z" transform="translate(-138.326 -21.741)" fill="#cbad63"/>
          <path id="Path_766" data-name="Path 766" d="M139.024,21.741c-.036,0-.291.015-.291.015-.327.027-.374.041-.407.187.036,0,.06-.008.105-.011,0,0,.255-.017.291-.017.273,0,.366.051.449.482a15.726,15.726,0,0,0,5.838,9.222,3.686,3.686,0,0,0,2.174.935,2.847,2.847,0,0,1,2.585,2.593,2.889,2.889,0,0,1-1.081,2.584,2.892,2.892,0,0,0-1.2-5.351,3.672,3.672,0,0,1-2.172-.936,15.714,15.714,0,0,1-5.838-9.222c-.084-.431-.176-.481-.449-.481Z" transform="translate(-138.326 -21.741)" fill="#ffeec1"/>
        </g>
        <g id="Group_1023" data-name="Group 1023" transform="translate(110.216 28.855)">
          <path id="Path_767" data-name="Path 767" d="M147.025,34.77a8.361,8.361,0,0,1-1.5-.143s-.365.024-.445.024a.876.876,0,0,1-.907-.9.976.976,0,0,1,.41-.984,1.027,1.027,0,0,0-.711,1.161.876.876,0,0,0,.907.9c.081,0,.445-.023.445-.023a8.494,8.494,0,0,0,1.5.142,5.473,5.473,0,0,0,3.072-.874A5.541,5.541,0,0,1,147.025,34.77Z" transform="translate(-143.868 -32.77)" fill="#cbad63"/>
          <path id="Path_768" data-name="Path 768" d="M144.587,32.77a1.027,1.027,0,0,0-.711,1.161.876.876,0,0,0,.907.9c.081,0,.446-.023.446-.023a8.465,8.465,0,0,0,1.494.142,5.473,5.473,0,0,0,3.072-.874,5.541,5.541,0,0,1-2.771.7,8.361,8.361,0,0,1-1.5-.143s-.365.024-.445.024a.876.876,0,0,1-.907-.9.976.976,0,0,1,.41-.984Z" transform="translate(-143.868 -32.77)" fill="#ffeec1"/>
        </g>
        <g id="Group_1024" data-name="Group 1024" transform="translate(45.516 17.653)">
          <path id="Path_769" data-name="Path 769" d="M101.86,25.338a1.659,1.659,0,0,1-.663.128c-.106,0-.222-.006-.241-.1a.943.943,0,0,0-.006.267A1.453,1.453,0,0,0,101.86,25.338Z" transform="translate(-100.945 -25.338)" fill="#cbad63"/>
          <path id="Path_770" data-name="Path 770" d="M101.86,25.338a1.659,1.659,0,0,1-.663.128c-.106,0-.222-.006-.241-.1a.943.943,0,0,0-.006.267,1.444,1.444,0,0,0,.91-.3Z" transform="translate(-100.945 -25.338)" fill="#ffeec1"/>
        </g>
        <g id="Group_1025" data-name="Group 1025" transform="translate(91.812 24.175)">
          <path id="Path_771" data-name="Path 771" d="M135.153,34.265a4.269,4.269,0,0,0-.047-.935,3.779,3.779,0,0,0-.98-.092,2.011,2.011,0,0,1-2.162-1.813,1.842,1.842,0,0,1,.9-1.761,1.872,1.872,0,0,0-1.206,1.937,2.014,2.014,0,0,0,2.162,1.813,3.746,3.746,0,0,1,.981.09,4.267,4.267,0,0,1,.047.935l0,.71c0,.555-.009,1.112.009,1.667a1.015,1.015,0,0,1-.017.258.532.532,0,0,0,.264-.059c.011-.011.065-.083.054-.374-.018-.556-.015-1.112-.011-1.669Z" transform="translate(-131.658 -29.665)" fill="#cbad63"/>
          <path id="Path_772" data-name="Path 772" d="M132.87,29.665a1.872,1.872,0,0,0-1.206,1.937,2.014,2.014,0,0,0,2.162,1.813,3.746,3.746,0,0,1,.981.09,4.267,4.267,0,0,1,.047.935l0,.71c0,.555-.009,1.112.009,1.667a1.015,1.015,0,0,1-.017.258.532.532,0,0,0,.264-.059c.011-.011.065-.083.054-.374-.018-.556-.015-1.112-.011-1.669l0-.708a4.269,4.269,0,0,0-.047-.935,3.779,3.779,0,0,0-.98-.092,2.011,2.011,0,0,1-2.162-1.813,1.842,1.842,0,0,1,.9-1.761Z" transform="translate(-131.658 -29.665)" fill="#ffeec1"/>
        </g>
        <g id="Group_1026" data-name="Group 1026" transform="translate(75.929 10.135)">
          <path id="Path_773" data-name="Path 773" d="M123.693,20.356l-.261,1.357c-.2,1.016-.393,2.032-.58,3.052l-.225,1.222c-.455,2.474-.909,4.946-1.329,7.424a1.219,1.219,0,0,1-.176.508c.216-.018.381-.119.478-.683.419-2.48.874-4.952,1.329-7.425l.225-1.222c.187-1.019.383-2.035.58-3.052l.228-1.185Z" transform="translate(-121.121 -20.351)" fill="#cbad63"/>
          <path id="Path_774" data-name="Path 774" d="M123.961,20.351l-.268,0-.261,1.357c-.2,1.016-.393,2.032-.58,3.052l-.225,1.222c-.455,2.474-.909,4.946-1.329,7.424a1.219,1.219,0,0,1-.176.508c.216-.018.381-.119.478-.683.419-2.48.874-4.952,1.329-7.425l.225-1.222c.187-1.019.383-2.035.58-3.052l.228-1.185Z" transform="translate(-121.121 -20.351)" fill="#ffeec1"/>
        </g>
        <g id="Group_1027" data-name="Group 1027" transform="translate(74.017 26.653)">
          <path id="Path_775" data-name="Path 775" d="M120.575,31.309a1.015,1.015,0,0,0-.428.256,1.59,1.59,0,0,0-.282,1.244c0,.1.012.208.011.309-.015.971-.02,1.943,0,2.915a1.105,1.105,0,0,1-.015.213h0a.493.493,0,0,0,.268-.047s.051-.057.045-.341c-.023-.972-.018-1.946,0-2.917,0-.1-.006-.2-.012-.309a1.588,1.588,0,0,1,.283-1.242A.907.907,0,0,1,120.575,31.309Z" transform="translate(-119.853 -31.309)" fill="#cbad63"/>
          <path id="Path_776" data-name="Path 776" d="M120.575,31.309a1.015,1.015,0,0,0-.428.256,1.59,1.59,0,0,0-.282,1.244c0,.1.012.208.011.309-.015.971-.02,1.943,0,2.915a1.105,1.105,0,0,1-.015.213h0a.493.493,0,0,0,.268-.047s.051-.057.045-.341c-.023-.972-.018-1.946,0-2.917,0-.1-.006-.2-.012-.309a1.588,1.588,0,0,1,.283-1.242.907.907,0,0,1,.127-.081Z" transform="translate(-119.853 -31.309)" fill="#ffeec1"/>
        </g>
        <g id="Group_1028" data-name="Group 1028" transform="translate(74.857 23.843)">
          <path id="Path_777" data-name="Path 777" d="M120.711,30.108l.244-.636a1.864,1.864,0,0,1-.223-.027l-.323.84c.537.311.531.641.464,1.3-.015.155-.021.3-.024.455a1.484,1.484,0,0,1,.243-.039h.05a5.273,5.273,0,0,1,.033-.591C121.241,30.75,121.248,30.419,120.711,30.108Z" transform="translate(-120.41 -29.445)" fill="#cbad63"/>
          <path id="Path_778" data-name="Path 778" d="M120.733,29.445l-.323.84c.537.311.531.641.464,1.3-.015.155-.021.3-.024.455a1.484,1.484,0,0,1,.243-.039h.05a5.273,5.273,0,0,1,.033-.591c.065-.659.072-.99-.464-1.3l.244-.636a1.864,1.864,0,0,1-.223-.027Z" transform="translate(-120.41 -29.445)" fill="#ffeec1"/>
        </g>
        <g id="Group_1029" data-name="Group 1029" transform="translate(95.401 14.932)">
          <path id="Path_779" data-name="Path 779" d="M140.765,23.533l-.418.823a28.306,28.306,0,0,1-2,3.474,17.715,17.715,0,0,1-4.308,4.219,1.945,1.945,0,0,0,.291-.169,17.735,17.735,0,0,0,4.319-4.225,28.336,28.336,0,0,0,2-3.474l.22-.434Z" transform="translate(-134.039 -23.533)" fill="#cbad63"/>
          <path id="Path_780" data-name="Path 780" d="M140.765,23.533l-.418.823a28.306,28.306,0,0,1-2,3.474,17.741,17.741,0,0,1-4.308,4.219,1.945,1.945,0,0,0,.291-.169,17.735,17.735,0,0,0,4.319-4.225,28.336,28.336,0,0,0,2-3.474l.22-.434-.1-.214Z" transform="translate(-134.039 -23.533)" fill="#ffeec1"/>
        </g>
        <g id="Group_1030" data-name="Group 1030" transform="translate(159.403 28.074)">
          <path id="Path_781" data-name="Path 781" d="M194.67,34.934c-.012-.012-.066-.05-.277-.05l-.2.008c-.175.015-.35.02-.525.02l-.8-.012s-13.1,0-14.866,0c-.081.008-.164.014-.244.014a.9.9,0,0,1-.686-.261.928.928,0,0,1-.2-.742,1.861,1.861,0,0,0-.03-.36,1.29,1.29,0,0,1,.392-1.3.749.749,0,0,0-.122.036,1.208,1.208,0,0,0-.571,1.441,1.845,1.845,0,0,1,.03.359.927.927,0,0,0,.2.742.9.9,0,0,0,.686.261c.081,0,.164-.006.246-.012,1.759,0,14.864,0,14.864,0l.8.011c.175,0,.35,0,.523-.018l.2-.009c.211,0,.267.038.279.051s.075.086.075.407a1.777,1.777,0,0,1-.011.244c.3-.015.311-.086.311-.419S194.678,34.941,194.67,34.934Z" transform="translate(-176.499 -32.252)" fill="#cbad63"/>
          <path id="Path_782" data-name="Path 782" d="M177.23,32.252a.749.749,0,0,0-.122.036,1.208,1.208,0,0,0-.571,1.441,1.845,1.845,0,0,1,.03.359.927.927,0,0,0,.2.742.9.9,0,0,0,.686.261c.081,0,.164-.006.246-.012,1.759,0,14.864,0,14.864,0l.8.011c.175,0,.35,0,.523-.018l.2-.009c.211,0,.267.038.279.051s.075.086.075.407a1.777,1.777,0,0,1-.011.244c.3-.015.311-.086.311-.419s-.068-.4-.075-.408-.066-.05-.277-.05l-.2.008c-.175.015-.35.02-.525.02l-.8-.012s-13.1,0-14.866,0c-.081.008-.164.014-.244.014a.9.9,0,0,1-.686-.261.928.928,0,0,1-.2-.742,1.861,1.861,0,0,0-.03-.36,1.289,1.289,0,0,1,.392-1.3Z" transform="translate(-176.499 -32.252)" fill="#ffeec1"/>
        </g>
        <g id="Group_1031" data-name="Group 1031" transform="translate(116.335 9.608)">
          <path id="Path_783" data-name="Path 783" d="M156.866,20.29A1.815,1.815,0,0,1,157.11,20a1.14,1.14,0,0,0-.544.466,41.091,41.091,0,0,1-6.64,7.267,4.011,4.011,0,0,0-1.452,2.826,4.445,4.445,0,0,0,1.384,3.223,7.6,7.6,0,0,0,2.721,1.842.9.9,0,0,1,.372.21l0,0a3.327,3.327,0,0,1-.285.39c-1.551,1.833-3.064,3.7-4.573,5.564a1.078,1.078,0,0,1-.163.146.865.865,0,0,0,.464-.323c1.507-1.866,3.022-3.731,4.572-5.562a3.273,3.273,0,0,0,.286-.39l0,0c-.006-.011-.072-.09-.371-.211a7.559,7.559,0,0,1-2.721-1.84,4.44,4.44,0,0,1-1.384-3.224,4,4,0,0,1,1.45-2.825A41.042,41.042,0,0,0,156.866,20.29Z" transform="translate(-147.927 -20.001)" fill="#cbad63"/>
          <path id="Path_784" data-name="Path 784" d="M157.11,20a1.14,1.14,0,0,0-.544.466,41.091,41.091,0,0,1-6.64,7.267,4.011,4.011,0,0,0-1.452,2.826,4.445,4.445,0,0,0,1.384,3.223,7.6,7.6,0,0,0,2.721,1.842c.292.116.362.194.371.21h0l0,0a3.327,3.327,0,0,1-.285.39c-1.551,1.833-3.064,3.7-4.573,5.564a1.078,1.078,0,0,1-.163.146.865.865,0,0,0,.464-.323c1.507-1.866,3.022-3.731,4.572-5.562a3.273,3.273,0,0,0,.286-.39h0a.924.924,0,0,0-.371-.21,7.559,7.559,0,0,1-2.721-1.84,4.44,4.44,0,0,1-1.384-3.224,4,4,0,0,1,1.45-2.825,41.042,41.042,0,0,0,6.64-7.268A1.815,1.815,0,0,1,157.11,20Zm-3.859,15.657v0Z" transform="translate(-147.927 -20.001)" fill="#ffeec1"/>
        </g>
        <g id="Group_1032" data-name="Group 1032" transform="translate(142.896 21.123)">
          <path id="Path_785" data-name="Path 785" d="M172.726,27.75c-1.482,1.028-2.977,2.035-4.474,3.042l-2,1.351c-.356.207-.69.4-.7.79a.988.988,0,0,0,.555.79.044.044,0,0,0-.024-.009c-.06,0-.063.182-.063.283,0,.68,0,1.2,0,1.727,0,.731,0,1.462.012,2.192a.913.913,0,0,1-.015.19.53.53,0,0,0,.27-.047s.051-.056.045-.32c-.015-.73-.014-1.461-.011-2.19,0-.525,0-1.049,0-1.727,0-.1,0-.285.063-.285a.041.041,0,0,1,.026.011.987.987,0,0,1-.556-.791c.011-.39.345-.582.7-.788l2-1.351c1.465-.986,2.929-1.973,4.38-2.977A1.98,1.98,0,0,0,172.726,27.75Z" transform="translate(-165.548 -27.64)" fill="#cbad63"/>
          <path id="Path_786" data-name="Path 786" d="M172.933,27.64a1.98,1.98,0,0,0-.207.11c-1.482,1.028-2.977,2.035-4.474,3.042l-2,1.351c-.356.207-.69.4-.7.79a.984.984,0,0,0,.549.787l.006,0-.006,0-.018-.006c-.06,0-.063.182-.063.283,0,.68,0,1.2,0,1.727,0,.731,0,1.462.012,2.192a.913.913,0,0,1-.015.19.53.53,0,0,0,.27-.047s.051-.056.045-.32c-.015-.73-.014-1.461-.011-2.19,0-.525,0-1.049,0-1.727,0-.1,0-.285.063-.285l.02.006a.984.984,0,0,1-.55-.787c.011-.39.345-.582.7-.788l2-1.351c1.465-.986,2.929-1.973,4.38-2.977Zm-6.534,5.9.006,0-.006,0Z" transform="translate(-165.548 -27.64)" fill="#ffeec1"/>
        </g>
        <g id="Group_1033" data-name="Group 1033" transform="translate(34.999 29.686)">
          <path id="Path_787" data-name="Path 787" d="M94.823,34.167l-.555-.255.405-.458a.968.968,0,0,1,.155-.133,1.1,1.1,0,0,0-.457.308l-.4.458.555.256a2.369,2.369,0,0,0,1.04.208c.127,0,.692-.023.692-.023l.642,0,1.947-.011c.5,0,1.005.006,1.509.027h.021a1.515,1.515,0,0,0,1.036-.28,2.14,2.14,0,0,1-.734.106h-.023c-.5-.023-1-.029-1.507-.029l-1.949.011-.642,0s-.564.024-.692.024A2.381,2.381,0,0,1,94.823,34.167Z" transform="translate(-93.968 -33.321)" fill="#cbad63"/>
          <path id="Path_788" data-name="Path 788" d="M94.829,33.321a1.1,1.1,0,0,0-.457.308l-.4.458.555.256a2.369,2.369,0,0,0,1.04.208c.127,0,.692-.023.692-.023l.642,0,1.947-.012c.5,0,1.005.008,1.509.029h.021a1.515,1.515,0,0,0,1.036-.28,2.14,2.14,0,0,1-.734.106h-.023c-.5-.023-1-.029-1.507-.029l-1.949.011-.642,0s-.564.024-.692.024a2.381,2.381,0,0,1-1.04-.21l-.555-.255.405-.458a.968.968,0,0,1,.155-.133Z" transform="translate(-93.968 -33.321)" fill="#ffeec1"/>
        </g>
        <g id="Group_1034" data-name="Group 1034" transform="translate(16.531 27.375)">
          <path id="Path_789" data-name="Path 789" d="M82.694,32.754c-.311-.039-.393-.324-.457-.529l-.158-.437-.363,0,.22.609c.063.207.146.49.457.529,1.131.175,1.131.175,1.131,1.34a5.051,5.051,0,0,1-.128,1.663.567.567,0,0,0,.268-.1,3.985,3.985,0,0,0,.161-1.736C83.825,32.928,83.825,32.928,82.694,32.754Z" transform="translate(-81.716 -31.788)" fill="#cbad63"/>
          <path id="Path_790" data-name="Path 790" d="M82.079,31.788l-.363,0,.22.609c.063.207.146.49.457.529,1.131.175,1.131.175,1.131,1.34a5.051,5.051,0,0,1-.128,1.663.567.567,0,0,0,.268-.1,3.985,3.985,0,0,0,.161-1.736c0-1.165,0-1.165-1.131-1.339-.311-.039-.393-.324-.457-.529l-.158-.437Z" transform="translate(-81.716 -31.788)" fill="#ffeec1"/>
        </g>
        <g id="Group_1035" data-name="Group 1035" transform="translate(0 30.519)">
          <path id="Path_791" data-name="Path 791" d="M71.007,34.245c2.719.008,5.4.011,8.073.011l7.431-.006.46.017a1.609,1.609,0,0,0,.953-.279l.163-.113a1.747,1.747,0,0,1-.814.217l-.46-.018-7.433.006c-2.677,0-5.353,0-8.072-.011a1.284,1.284,0,0,0-.516.063.274.274,0,0,0-.044.119C70.848,34.245,70.949,34.245,71.007,34.245Z" transform="translate(-70.749 -33.874)" fill="#cbad63"/>
          <path id="Path_792" data-name="Path 792" d="M88.087,33.874a1.747,1.747,0,0,1-.814.217l-.46-.018-7.433.006c-2.677,0-5.353,0-8.072-.011a1.284,1.284,0,0,0-.516.063.274.274,0,0,0-.044.119c.1-.006.2-.006.258-.006,2.719.008,5.4.011,8.073.011l7.431-.006.46.017a1.609,1.609,0,0,0,.953-.279l.163-.113Z" transform="translate(-70.749 -33.874)" fill="#ffeec1"/>
        </g>
        <g id="Group_1036" data-name="Group 1036" transform="translate(15.961 26.125)">
          <path id="Path_793" data-name="Path 793" d="M81.522,31.227a4.041,4.041,0,0,0,.666.062,2.058,2.058,0,0,0,1.134-.33,2.275,2.275,0,0,1-.832.154,4.015,4.015,0,0,1-.666-.06,1.144,1.144,0,0,0-.205-.02.216.216,0,0,0-.28.178A1.387,1.387,0,0,1,81.522,31.227Z" transform="translate(-81.338 -30.959)" fill="#cbad63"/>
          <path id="Path_794" data-name="Path 794" d="M83.322,30.959a2.275,2.275,0,0,1-.832.154,4.015,4.015,0,0,1-.666-.06,1.144,1.144,0,0,0-.205-.02.216.216,0,0,0-.28.178,1.387,1.387,0,0,1,.184.017,4.041,4.041,0,0,0,.666.062,2.058,2.058,0,0,0,1.134-.33Z" transform="translate(-81.338 -30.959)" fill="#ffeec1"/>
        </g>
        <g id="Group_1037" data-name="Group 1037" transform="translate(22.102 19.773)">
          <path id="Path_795" data-name="Path 795" d="M89.753,26.921l.19,0a7.723,7.723,0,0,1,7.119,4.926A1.907,1.907,0,0,0,99.046,33.4l.264-.008c.241-.015.445-.026.612-.026a.88.88,0,0,1,.362.039,4.369,4.369,0,0,1,.056,1.033v.208c0,.039,0,.08,0,.119l.172.071-.169.047c0,.131,0,.261.009.39a4.925,4.925,0,0,1-.041,1.118l.083,0c.142,0,.179-.018.21-.1a4.566,4.566,0,0,0,.05-1.2c-.009-.21-.018-.421-.015-.627v-.21a4.354,4.354,0,0,0-.056-1.031.846.846,0,0,0-.362-.039c-.169,0-.371.011-.613.024l-.262.008a1.906,1.906,0,0,1-1.984-1.548,7.723,7.723,0,0,0-7.121-4.925l-.188,0a8.531,8.531,0,0,0-4.643,1.314A8.605,8.605,0,0,1,89.753,26.921Z" transform="translate(-85.412 -26.745)" fill="#cbad63"/>
          <path id="Path_796" data-name="Path 796" d="M90.055,26.745a8.531,8.531,0,0,0-4.643,1.314,8.605,8.605,0,0,1,4.341-1.138l.19,0a7.723,7.723,0,0,1,7.119,4.926A1.907,1.907,0,0,0,99.046,33.4l.264-.008c.241-.015.445-.026.612-.026a.88.88,0,0,1,.362.039,4.369,4.369,0,0,1,.056,1.033v.208c0,.039,0,.08,0,.119l.172.071-.169.047c0,.131,0,.261.009.39a4.925,4.925,0,0,1-.041,1.118l.083,0c.142,0,.179-.018.21-.1a4.566,4.566,0,0,0,.05-1.2c-.009-.21-.018-.421-.015-.627v-.21a4.354,4.354,0,0,0-.056-1.031.846.846,0,0,0-.362-.039c-.169,0-.371.011-.613.024l-.262.008a1.906,1.906,0,0,1-1.984-1.548,7.723,7.723,0,0,0-7.121-4.925l-.188,0Z" transform="translate(-85.412 -26.745)" fill="#ffeec1"/>
        </g>
        <g id="Group_1038" data-name="Group 1038" transform="translate(47.035 18.857)">
          <path id="Path_797" data-name="Path 797" d="M102.276,26.719a.674.674,0,0,1,.08-.532c.017-.026.041-.03.06-.05a.535.535,0,0,0-.362.225.681.681,0,0,0-.08.532,20.75,20.75,0,0,1,.235,4.792c-.027.987-.056,2.006,0,3.019a1.115,1.115,0,0,1-.014.285.67.67,0,0,0,.262-.071c.017-.018.069-.1.051-.39-.059-1.011-.03-2.03,0-3.018A20.828,20.828,0,0,0,102.276,26.719Z" transform="translate(-101.953 -26.137)" fill="#cbad63"/>
          <path id="Path_798" data-name="Path 798" d="M102.416,26.137a.535.535,0,0,0-.362.225.681.681,0,0,0-.08.532,20.75,20.75,0,0,1,.235,4.792c-.027.987-.056,2.006,0,3.019a1.115,1.115,0,0,1-.014.285.67.67,0,0,0,.262-.071c.017-.018.069-.1.051-.39-.059-1.011-.03-2.03,0-3.018a20.828,20.828,0,0,0-.235-4.792.674.674,0,0,1,.08-.532c.017-.026.041-.03.06-.05Z" transform="translate(-101.953 -26.137)" fill="#ffeec1"/>
        </g>
        <g id="Group_1039" data-name="Group 1039" transform="translate(19.326 21.625)">
          <path id="Path_799" data-name="Path 799" d="M83.673,33.146a1.075,1.075,0,0,1-.1.407c.229-.011.354-.084.4-.582a6.554,6.554,0,0,1,3.327-5A6.579,6.579,0,0,0,83.673,33.146Z" transform="translate(-83.57 -27.973)" fill="#cbad63"/>
          <path id="Path_800" data-name="Path 800" d="M87.3,27.973a6.579,6.579,0,0,0-3.628,5.173,1.075,1.075,0,0,1-.1.407c.229-.011.354-.084.4-.582a6.554,6.554,0,0,1,3.327-5Z" transform="translate(-83.57 -27.973)" fill="#ffeec1"/>
        </g>
        <g id="Group_1040" data-name="Group 1040" transform="translate(47.708 7.782)">
          <path id="Path_801" data-name="Path 801" d="M107.724,18.8c-.751.27-.849,1-.921,1.536a2.183,2.183,0,0,1-.169.713,7.087,7.087,0,0,1-1.2,1.727,9.2,9.2,0,0,0-3.021,6.575,2.45,2.45,0,0,1-.018.363,1.059,1.059,0,0,1,.178-.045c.127-.029.137-.032.14-.493a9.207,9.207,0,0,1,3.021-6.577,6.991,6.991,0,0,0,1.2-1.727,2.253,2.253,0,0,0,.169-.711,1.847,1.847,0,0,1,.648-1.369Z" transform="translate(-102.399 -18.79)" fill="#cbad63"/>
          <path id="Path_802" data-name="Path 802" d="M107.753,18.79l-.029.008c-.751.27-.849,1-.921,1.536a2.183,2.183,0,0,1-.169.713,7.087,7.087,0,0,1-1.2,1.727,9.2,9.2,0,0,0-3.021,6.575,2.45,2.45,0,0,1-.018.363,1.059,1.059,0,0,1,.178-.045c.127-.029.137-.032.14-.493a9.207,9.207,0,0,1,3.021-6.577,6.991,6.991,0,0,0,1.2-1.727,2.253,2.253,0,0,0,.169-.711,1.847,1.847,0,0,1,.648-1.369Z" transform="translate(-102.399 -18.79)" fill="#ffeec1"/>
        </g>
        <g id="Group_1041" data-name="Group 1041" transform="translate(43.608 27.912)">
          <path id="Path_803" data-name="Path 803" d="M100.562,32.144a1.232,1.232,0,0,0-.559.416,3.222,3.222,0,0,0-.253,2.225c.021.2.042.4.053.583a1.441,1.441,0,0,1-.024.455c.184-.02.244-.063.259-.08.035-.036.089-.157.065-.55-.009-.185-.032-.383-.053-.585a3.217,3.217,0,0,1,.255-2.223A1.1,1.1,0,0,1,100.562,32.144Z" transform="translate(-99.679 -32.144)" fill="#cbad63"/>
          <path id="Path_804" data-name="Path 804" d="M100.562,32.144a1.232,1.232,0,0,0-.559.416,3.222,3.222,0,0,0-.253,2.225c.021.2.042.4.053.583a1.441,1.441,0,0,1-.024.455c.184-.02.244-.063.259-.08.035-.036.089-.157.065-.55-.009-.185-.032-.383-.053-.585a3.226,3.226,0,0,1,.253-2.223,1.14,1.14,0,0,1,.259-.241Z" transform="translate(-99.679 -32.144)" fill="#ffeec1"/>
        </g>
      </g>
      <path id="Path_805" data-name="Path 805" d="M114.173,45.742h2.721V62.153h-2.721ZM94.428,48.484h5.725V62.153H102.9V48.484h5.7V45.742H94.428Zm28.037,0h5.725V62.153h2.743V48.484h5.7V45.742H122.465Zm31.513,13.67h3.052l-9.48-19.064-9.481,19.064h3.051l6.43-12.829Zm37.708-15.762a8.352,8.352,0,0,0-4.386,4.4,8.08,8.08,0,0,0,0,6.349,8.317,8.317,0,0,0,1.773,2.6,8.588,8.588,0,0,0,2.614,1.762,8.21,8.21,0,0,0,6.373.012,8.365,8.365,0,0,0,2.612-1.774l-1.938-1.916a5.348,5.348,0,0,1-3.856,1.586,5.4,5.4,0,0,1-2.139-.428A5.3,5.3,0,0,1,191,57.813a5.735,5.735,0,0,1-1.17-1.738,5.4,5.4,0,0,1,0-4.257,5.667,5.667,0,0,1,1.18-1.738,5.472,5.472,0,0,1,1.74-1.17,5.455,5.455,0,0,1,5.983,1.182l1.938-1.94a8.36,8.36,0,0,0-2.612-1.773,8.21,8.21,0,0,0-6.373.012ZM160.141,62.153h2.721V52.316l10.948,9.837V45.738h-2.745v9.817l-10.924-9.837Zm19.24,0H182.1V45.742h-2.719Z" transform="translate(-1626.494 7251.777)" fill="#af8128"/>
      <g id="Group_1043" data-name="Group 1043" transform="translate(-1531.611 7295.89)">
        <path id="Path_806" data-name="Path 806" d="M107.829,45.417h1.424V60.654h.385v-15.5h-1.809Z" transform="translate(-88.085 -43.067)" fill="#ffeec1"/>
        <rect id="Rectangle_623" data-name="Rectangle 623" width="0.385" height="13.405" transform="translate(7.172 4.182)" fill="#ffeec1"/>
        <rect id="Rectangle_624" data-name="Rectangle 624" width="0.385" height="13.405" transform="translate(35.208 4.182)" fill="#ffeec1"/>
        <path id="Path_807" data-name="Path 807" d="M159.2,46.028a7.745,7.745,0,0,1,6.01-.011,7.872,7.872,0,0,1,2.14,1.364l-.98.983c.023.018.047.032.069.051l1.3-1.3a7.847,7.847,0,0,0-2.14-1.364,7.745,7.745,0,0,0-6.01.011,8.132,8.132,0,0,0-1.515.885A8.251,8.251,0,0,1,159.2,46.028Z" transform="translate(-62.597 -43.067)" fill="#ffeec1"/>
        <path id="Path_808" data-name="Path 808" d="M148.864,55.615V55l-10.539-9.492v.611Z" transform="translate(-72.612 -42.884)" fill="#ffeec1"/>
        <path id="Path_809" data-name="Path 809" d="M160.879,57.345a5.791,5.791,0,0,1-1.884-1.269,6.219,6.219,0,0,1-1.263-1.872,5.868,5.868,0,0,1,0-4.625,6.168,6.168,0,0,1,1.277-1.878,5.72,5.72,0,0,1,.677-.556,5.866,5.866,0,0,0-1.063.822,6.146,6.146,0,0,0-1.275,1.878,5.847,5.847,0,0,0,0,4.623,6.2,6.2,0,0,0,1.263,1.874,5.8,5.8,0,0,0,1.883,1.269,5.9,5.9,0,0,0,2.317.463,5.742,5.742,0,0,0,3.322-1.039,5.778,5.778,0,0,1-2.936.773A5.893,5.893,0,0,1,160.879,57.345Z" transform="translate(-63.203 -42.056)" fill="#ffeec1"/>
        <path id="Path_810" data-name="Path 810" d="M94.73,45.417h12.877v1.568h.385V45.152H94.73Z" transform="translate(-94.73 -43.067)" fill="#ffeec1"/>
        <path id="Path_811" data-name="Path 811" d="M145.572,45.413h1.448V59.743l.385.346V45.149h-1.833Z" transform="translate(-68.936 -43.069)" fill="#ffeec1"/>
        <path id="Path_812" data-name="Path 812" d="M151.089,45.417h1.423V60.654h.385v-15.5h-1.808Z" transform="translate(-66.136 -43.067)" fill="#ffeec1"/>
        <path id="Path_813" data-name="Path 813" d="M163.365,53.553l1.29,1.274a7.52,7.52,0,0,1-.746.565,7.918,7.918,0,0,0,1.131-.829l-1.3-1.28C163.623,53.385,163.492,53.462,163.365,53.553Z" transform="translate(-59.908 -38.942)" fill="#ffeec1"/>
        <path id="Path_814" data-name="Path 814" d="M139.27,48.709V58.847h.385V49.055Z" transform="translate(-72.133 -41.263)" fill="#ffeec1"/>
        <path id="Path_815" data-name="Path 815" d="M131.629,46.728l-6.578,13.126h.252l6.452-12.874Z" transform="translate(-79.347 -42.267)" fill="#ffeec1"/>
        <path id="Path_816" data-name="Path 816" d="M113.33,45.417h12.876v1.568h.385V45.152H113.33Z" transform="translate(-85.294 -43.067)" fill="#ffeec1"/>
        <path id="Path_817" data-name="Path 817" d="M129.5,44.288l8.486,17.067h.516l-8.745-17.586Z" transform="translate(-77.09 -43.769)" fill="#ffeec1"/>
      </g>
      <g id="Group_1044" data-name="Group 1044" transform="translate(-1634.262 7325.848)">
        <path id="Path_818" data-name="Path 818" d="M81.6,64.1c.047,0,.13,0,.225,0l-1.014-.029,0,.011Z" transform="translate(0.857 -63.429)" fill="#ffeec1"/>
        <path id="Path_819" data-name="Path 819" d="M127.219,64.059l-.487,0v0Z" transform="translate(24.157 -63.433)" fill="#ffeec1"/>
        <path id="Path_820" data-name="Path 820" d="M82.638,83.139a5.229,5.229,0,0,1-.39-2.364c-.039-.54-.063-9.186-.065-9.554,0-2.152,0-5.007.026-5.953a.958.958,0,0,1,.6-.966,6.844,6.844,0,0,1,1.828-.235c-.066,0-.127,0-.193,0a7.856,7.856,0,0,0-2.018.24.96.96,0,0,0-.6.966c-.023.945-.024,3.8-.024,5.953,0,.368.026,9.014.063,9.554a5.251,5.251,0,0,0,.39,2.364c.623.871,2.3,1.295,5.122,1.295.039,0,.077,0,.116,0C84.836,84.4,83.24,83.981,82.638,83.139Z" transform="translate(1.361 -63.43)" fill="#ffeec1"/>
        <path id="Path_821" data-name="Path 821" d="M116.1,64.466c.41.47,4.6,4.992,8.862,9.567,1.366,1.465,2.8,3.033,4.008,4.359,1.245,1.364,2.254,2.469,2.715,2.939l.806.823-.009-.4-.415-.424c-.46-.47-1.47-1.575-2.713-2.939-1.21-1.326-2.642-2.894-4.008-4.359-4.267-4.575-8.452-9.1-8.863-9.567-.081-.081-.421-.46-.493-.543-.008.1-.014.243-.017.407C116.028,64.39,116.076,64.442,116.1,64.466Z" transform="translate(18.699 -63.501)" fill="#ffeec1"/>
        <path id="Path_822" data-name="Path 822" d="M66.17,64.061h.294c-.66,0-1.345,0-1.994-.006v0C65.034,64.058,65.608,64.061,66.17,64.061Z" transform="translate(-7.432 -63.434)" fill="#ffeec1"/>
        <path id="Path_823" data-name="Path 823" d="M41.22,80.649l-1.872-16.6-.309.66,1.8,15.94c.136,1.128.345,2.7.345,2.7a2.621,2.621,0,0,0,.268.817h.384a2.575,2.575,0,0,1-.268-.817S41.354,81.777,41.22,80.649Z" transform="translate(-20.334 -63.437)" fill="#ffeec1"/>
        <path id="Path_824" data-name="Path 824" d="M27.83,67.387,26.7,80.528c-.02.321-.065,1.033-.068,1.645a1.826,1.826,0,0,0,.081.512h.383a1.882,1.882,0,0,1-.081-.512c0-.612.048-1.323.069-1.645l1.132-13.141.148-.416h-.383Z" transform="translate(-26.63 -61.955)" fill="#ffeec1"/>
        <path id="Path_825" data-name="Path 825" d="M36.223,82.239l.188-.4L27.749,64.023l-.071.643Z" transform="translate(-26.098 -63.45)" fill="#ffeec1"/>
        <path id="Path_826" data-name="Path 826" d="M228.787,78.1c-.032-.6,0-6.907,0-7.175v-.173l.431-.484-.178,0h-.205l-.431.485v.173c0,.268-.032,6.577,0,7.175.086,2.348.906,2.7,3.684,2.7h.243l.084,0C229.686,80.8,228.872,80.43,228.787,78.1Z" transform="translate(75.733 -60.283)" fill="#ffeec1"/>
        <path id="Path_827" data-name="Path 827" d="M217.805,63.758c-.06,0-.113-.008-.173-.008-4.026,0-5.775,1.238-6.741,2.168-2.342,2.232-2.659,5.1-2.659,7.608A10.509,10.509,0,0,0,218.768,84.2c.065,0,.115-.009.178-.011a10.507,10.507,0,0,1-10.33-10.668c0-2.51.315-5.375,2.659-7.608C212.222,65,213.937,63.8,217.805,63.758Z" transform="translate(65.507 -63.589)" fill="#ffeec1"/>
        <path id="Path_828" data-name="Path 828" d="M229.375,64.123l-.365,0c-.1,0-.612.035-.612.736v7.7c0,.641.384.736.612.736h.381c-.228,0-.611-.1-.611-.736v-7.7C228.781,64.179,229.251,64.126,229.375,64.123Z" transform="translate(75.738 -63.401)" fill="#ffeec1"/>
        <path id="Path_829" data-name="Path 829" d="M177.962,75.479c0-.365,0-8.978.069-9.875a5.689,5.689,0,0,1,.252-1.553l-.384,0a5.792,5.792,0,0,0-.252,1.551c-.068.9-.068,9.51-.068,9.875l-.009,1.812c-.02,2.969-.032,4.6.71,5.634.544.763,2,.825,3.717.825h.311c-1.679,0-3.108-.074-3.645-.825-.742-1.031-.73-2.665-.708-5.634Z" transform="translate(49.947 -63.435)" fill="#ffeec1"/>
        <path id="Path_830" data-name="Path 830" d="M176.853,64.055h0Z" transform="translate(49.487 -63.434)" fill="#ffeec1"/>
        <path id="Path_831" data-name="Path 831" d="M145.716,64.067c.062,0,.16,0,.24,0-.258-.008-.793-.027-.965-.033l0,.014C145.308,64.053,145.674,64.067,145.716,64.067Z" transform="translate(33.421 -63.447)" fill="#ffeec1"/>
        <path id="Path_832" data-name="Path 832" d="M40.351,66.945,33.85,80.84l-.038-.077-.564,1.2-.137.291c.077.145.146.27.2.366.083-.16.193-.392.317-.657l7.026-14.92.208-.261h-.383Z" transform="translate(-23.342 -62.051)" fill="#ffeec1"/>
        <path id="Path_833" data-name="Path 833" d="M53.553,67.153C53,65.715,52.61,64.684,52.5,64.4c-.074-.187-.134-.332-.182-.443-.074.178-.145.366-.187.479.122.314.5,1.316,1.042,2.718,1.467,3.839,4.2,10.99,5.46,14.1a15.166,15.166,0,0,0,1.617,2.963h.383a15.248,15.248,0,0,1-1.617-2.963C57.753,78.143,55.022,70.992,53.553,67.153Z" transform="translate(-13.693 -63.484)" fill="#ffeec1"/>
        <path id="Path_834" data-name="Path 834" d="M164.753,67.9c-.7-1.821-1.212-3.165-1.345-3.5-.072-.185-.13-.327-.178-.437-.048.119-.112.283-.185.488.154.392.653,1.694,1.325,3.449,1.59,4.154,3.993,10.432,5.172,13.354a15.542,15.542,0,0,0,1.614,2.963h.383a15.52,15.52,0,0,1-1.613-2.963C168.746,78.329,166.343,72.05,164.753,67.9Z" transform="translate(42.581 -63.483)" fill="#ffeec1"/>
        <path id="Path_835" data-name="Path 835" d="M148.3,64c.048.008.105.026.155.036,2.59.178,3.578,1.066,3.969,1.427a4.381,4.381,0,0,1,1.248,2.992,6.069,6.069,0,0,1-1.83,4.5,4.989,4.989,0,0,1-.788.865,5.92,5.92,0,0,0,3-5.365,4.382,4.382,0,0,0-1.25-2.992C152.395,65.081,151.317,64.081,148.3,64Z" transform="translate(35.102 -63.46)" fill="#ffeec1"/>
        <path id="Path_836" data-name="Path 836" d="M146.785,64.119a1.649,1.649,0,0,1,.268-.09l-.244.008-.179.006a1.834,1.834,0,0,0-.228.077c-.5.17-.5.758-.5.951v11.48c0,2.748,0,5.12.148,6.326a3.518,3.518,0,0,0,.408,1.3h.383a3.548,3.548,0,0,1-.409-1.3c-.148-1.206-.148-3.578-.148-6.326V65.071C146.285,64.878,146.285,64.29,146.785,64.119Z" transform="translate(33.883 -63.447)" fill="#ffeec1"/>
        <path id="Path_837" data-name="Path 837" d="M220.456,76.978c-.125.384-.125.384-.484.55a15.12,15.12,0,0,1-4.579.594c.044,0,.083,0,.125,0a15.634,15.634,0,0,0,4.837-.6c.36-.166.36-.166.484-.55.045-.139.084-.309.125-.5-.127.075-.294.146-.439.219C220.5,76.794,220.482,76.9,220.456,76.978Z" transform="translate(69.14 -57.131)" fill="#ffeec1"/>
        <path id="Path_838" data-name="Path 838" d="M214.9,63.643c-.053,0-.1,0-.151,0a23.626,23.626,0,0,1,3.737.326,24.413,24.413,0,0,0,2.825.425c0,.038-.009.078-.015.127-.032.246-.08.624-.112,1.265,0,.041,0,.089-.006.131.133.122.259.244.366.362.006-.175.014-.342.024-.493.032-.641.078-1.019.11-1.265.006-.048.012-.089.017-.127a24.391,24.391,0,0,1-2.826-.425A23.7,23.7,0,0,0,214.9,63.643Z" transform="translate(68.813 -63.643)" fill="#ffeec1"/>
        <path id="Path_839" data-name="Path 839" d="M198.226,68.457c-.806-2.1-1.415-3.695-1.568-4.07-.065-.176-.119-.315-.163-.422-.054.131-.118.3-.19.5.185.466.769,1.991,1.538,3.994,1.525,3.982,3.832,10,4.955,12.788a16.713,16.713,0,0,0,1.632,2.965h.383a16.713,16.713,0,0,1-1.632-2.965C202.058,78.457,199.752,72.439,198.226,68.457Z" transform="translate(59.456 -63.48)" fill="#ffeec1"/>
        <path id="Path_840" data-name="Path 840" d="M127.219,66.54,127.17,80.6l.033,1.483-.039-.039,0,.855c0,.231,0,.62-.008.969.139.131.267.252.372.344.02-.4.02-1,.02-1.313L127.6,66.54a7.741,7.741,0,0,1,.268-2.483l-.383,0A7.681,7.681,0,0,0,127.219,66.54Z" transform="translate(24.371 -63.433)" fill="#ffeec1"/>
        <path id="Path_841" data-name="Path 841" d="M70.557,75.466l-.374-.476.559-.229a5.727,5.727,0,0,0,3.5-5.146,5.974,5.974,0,0,0-2.419-4.6,5.506,5.506,0,0,0-3.487-.965l-.306,0a5.46,5.46,0,0,1,3.408.96,5.97,5.97,0,0,1,2.419,4.6,5.694,5.694,0,0,1-2.93,4.864c-.035.03-.06.074-.095.1a3.933,3.933,0,0,1-.983.472l.324.413c2.374,3.01,4.594,5.5,6.04,7.051a10.362,10.362,0,0,0,2.03,1.652h.383a10.456,10.456,0,0,1-2.03-1.652C75.152,80.962,72.931,78.476,70.557,75.466Z" transform="translate(-5.625 -63.439)" fill="#ffeec1"/>
        <path id="Path_842" data-name="Path 842" d="M64.532,77.389l0,0c.146,0,.5,0,.871,0C65.1,77.388,64.782,77.389,64.532,77.389Z" transform="translate(-7.401 -56.669)" fill="#ffeec1"/>
        <path id="Path_843" data-name="Path 843" d="M116.331,65.953l-.362-.41v1.164l.36,13.441a9.891,9.891,0,0,0,.446,3.248l.383,0a9.911,9.911,0,0,1-.445-3.25Z" transform="translate(18.696 -62.679)" fill="#ffeec1"/>
        <path id="Path_844" data-name="Path 844" d="M81.621,77.383c-.03,0-.418.006-.858.015l0,.008c.347-.008.7-.015.941-.018Z" transform="translate(0.833 -56.672)" fill="#ffeec1"/>
        <path id="Path_845" data-name="Path 845" d="M84.973,64.032h-.329c3.327,0,7.066.377,9.643,3.048a9.445,9.445,0,0,1,2.584,6.78,11.017,11.017,0,0,1-2.89,7.568,10.857,10.857,0,0,1-8.033,3.055l.285,0a10.894,10.894,0,0,0,8.132-3.058,11.025,11.025,0,0,0,2.888-7.568,9.445,9.445,0,0,0-2.582-6.78C92.08,64.394,88.314,64.032,84.973,64.032Z" transform="translate(2.804 -63.446)" fill="#ffeec1"/>
        <path id="Path_846" data-name="Path 846" d="M115.745,77.387v0l.585,0Z" transform="translate(18.583 -56.67)" fill="#ffeec1"/>
        <path id="Path_847" data-name="Path 847" d="M105.039,67.416c-.6-1.575-1.039-2.715-1.158-3.019-.072-.185-.131-.33-.178-.442-.051.128-.115.3-.187.491.137.348.556,1.446,1.14,2.969,1.545,4.037,4.132,10.794,5.353,13.834a16.131,16.131,0,0,0,1.626,2.965h.383a16.13,16.13,0,0,1-1.626-2.965C109.171,78.21,106.584,71.453,105.039,67.416Z" transform="translate(12.379 -63.485)" fill="#ffeec1"/>
      </g>
    </g>
  </g>
</svg>
